<?xml version="1.0" encoding="UTF-8"?>
<!-- Generator: Adobe Illustrator 22.0.1, SVG Export Plug-In . SVG Version: 6.00 Build 0)  -->
<svg version="1.1" id="Layer_1" xmlns="http://www.w3.org/2000/svg" xmlns:xlink="http://www.w3.org/1999/xlink" x="0px" y="0px" viewBox="0 0 483.03125 80" style="enable-background:new 0 0 483.03125 80;" xml:space="preserve"><title> | https://tcmaker.org/</title>
<style type="text/css">
	.st0{clip-path:url(#SVGID_2_);fill:#990000;}
	.st1{clip-path:url(#SVGID_4_);fill:#990000;stroke:#990000;stroke-width:0.75;stroke-miterlimit:10;}
</style>
<g>
	<g>
		<defs>
			<rect id="SVGID_1_" width="69.3199" height="80"/>
		</defs>
		<clipPath id="SVGID_2_">
			<use xlink:href="#SVGID_1_" style="overflow:visible;"/>
		</clipPath>
		<path class="st0" d="M34.68191,0.14388L69.23566,20.0935v13.29975h-7.08654    c-3.00373-12.37521-14.19043-21.61189-27.46721-21.61189c-15.56614,0-28.26176,12.69562-28.26176,28.26176    s12.69562,28.26197,28.26176,28.26197c13.27678,0,24.46328-9.23688,27.46721-21.61189h7.08654v13.29975L34.68191,79.94257    L0.12836,59.99295V20.0935L34.68191,0.14388"/>
	</g>
	<g>
		<defs>
			<rect id="SVGID_3_" width="69.3199" height="80"/>
		</defs>
		<clipPath id="SVGID_4_">
			<use xlink:href="#SVGID_3_" style="overflow:visible;"/>
		</clipPath>
		<path class="st1" d="M50.3464,44.4264c1.19154,0,2.38287,0,3.57884,0c0.93985,0,1.6395-0.28836,2.0939-0.85723    c0.44796-0.56141,0.54529-1.33441,0.2797-2.29945c-0.03445-0.12312-0.06771-0.24604-0.10115-0.36514    c-0.82096-2.98357-1.58308-5.75577-2.28897-8.32423c-0.65914-2.39899-1.27536-4.63677-1.85209-6.73229    c-0.00201-0.00766-0.0145-0.01531-0.01733-0.0268c-0.00202-0.00786-0.00483-0.01552-0.00685-0.02317    c-0.00282-0.01149-0.00423-0.01532-0.00705-0.0268c-0.00202-0.00766-0.00463-0.01552-0.00685-0.02318    c-0.00625-0.01149-0.00745-0.01531-0.01028-0.0268c-0.00202-0.00766-0.00484-0.01552-0.00705-0.02317    c-0.00625-0.01149-0.00745-0.01532-0.01028-0.0268c-0.00202-0.00766-0.00827-0.01552-0.01048-0.02318    c-0.00262-0.01149-0.00746-0.01531-0.00947-0.02297c-0.00282-0.01169-0.00846-0.01935-0.01129-0.027    c-0.00181-0.00766-0.00685-0.01532-0.00947-0.02298c-0.00222-0.00766-0.00847-0.01934-0.01048-0.027    c-0.00544-0.00766-0.00746-0.01531-0.0131-0.02297c-0.00202-0.00766-0.00827-0.01532-0.01028-0.02318    c-0.00565-0.00766-0.00766-0.01531-0.0131-0.02297c-0.00201-0.00766-0.00826-0.01935-0.01048-0.027    c-0.00544-0.00766-0.01088-0.01149-0.01289-0.01914c-0.00544-0.00786-0.00827-0.01935-0.01371-0.027    c-0.00544-0.00766-0.00685-0.01149-0.0135-0.02297c-0.00544-0.00786-0.00745-0.01552-0.0131-0.02318    c-0.00604-0.00766-0.01088-0.01531-0.01289-0.02317c-0.00544-0.00766-0.01089-0.01531-0.01693-0.02277    c-0.00544-0.00786-0.00745-0.01551-0.01229-0.01935c-0.00544-0.00786-0.01149-0.01914-0.01714-0.027    c-0.00544-0.00766-0.00745-0.01149-0.01209-0.01914c-0.00544-0.00766-0.01168-0.01552-0.01713-0.02318    c-0.00544-0.00766-0.01088-0.01531-0.01632-0.02297c-0.00484-0.00383-0.01028-0.01169-0.01572-0.01935    c-0.00604-0.01149-0.01149-0.01531-0.01693-0.02297c-0.00483-0.00766-0.01028-0.01531-0.01572-0.02297    c-0.00544-0.00403-0.01068-0.01169-0.01975-0.01935c-0.00544-0.00766-0.01007-0.01149-0.01551-0.01914    c-0.00544-0.00766-0.01088-0.01551-0.01974-0.02317c-0.00544-0.00766-0.01089-0.01532-0.01572-0.01914    c-0.00544-0.00766-0.01431-0.01552-0.01955-0.02317c-0.00564-0.00766-0.01088-0.01532-0.01974-0.02297    c-0.00484-0.00383-0.01028-0.01169-0.01915-0.01935c-0.00544-0.00766-0.01068-0.01531-0.01955-0.02297    c-0.00484-0.00383-0.0137-0.01149-0.01914-0.01935c-0.00544-0.00766-0.0141-0.01531-0.01894-0.01914    c-0.00887-0.00766-0.01431-0.01531-0.02237-0.01914c-0.00544-0.00766-0.01431-0.01531-0.01975-0.02317    c-0.00887-0.00766-0.0135-0.01149-0.02237-0.01914c-0.00463-0.00383-0.0135-0.01149-0.01894-0.01935    c-0.00887-0.00766-0.01693-0.01149-0.02237-0.01914c-0.00887-0.00766-0.01693-0.01149-0.02237-0.01914    c-0.00887-0.00786-0.01693-0.01149-0.02237-0.01914c-0.00887-0.00786-0.01753-0.01552-0.02156-0.01935    c-0.00887-0.00766-0.01773-0.01551-0.0264-0.02297c-0.00484-0.00383-0.0137-0.01169-0.02237-0.01935    c-0.00887-0.00786-0.01632-0.00786-0.02176-0.01531c-0.00867-0.00766-0.01693-0.01169-0.0256-0.01935    c-0.00887-0.00766-0.01753-0.01531-0.02499-0.01914c-0.00887-0.00766-0.01753-0.01531-0.02559-0.01914    c-0.00544-0.00766-0.01411-0.01551-0.02216-0.01935c-0.00867-0.00766-0.01632-0.00766-0.02499-0.01531    c-0.00867-0.00766-0.01673-0.01149-0.02882-0.01935c-0.00887-0.00766-0.01693-0.01148-0.02559-0.01914    c-0.00746-0.00383-0.01612-0.01148-0.02419-0.01531c-0.00866-0.00786-0.01753-0.01552-0.02901-0.01914    c-0.00867-0.00786-0.01672-0.01168-0.02479-0.01552c-0.00806-0.00766-0.02015-0.01149-0.02821-0.01914    c-0.00867-0.00786-0.02015-0.01169-0.03224-0.01935c-0.00806-0.00383-0.01612-0.00766-0.02418-0.01149    c-0.01209-0.00766-0.02015-0.01148-0.02882-0.01914c-0.01149-0.00766-0.02015-0.01169-0.02821-0.01935    c-0.01149-0.00383-0.01955-0.00766-0.02741-0.01149c-0.01209-0.00766-0.02015-0.01531-0.02882-0.01914    c-0.01209-0.00786-0.02015-0.01552-0.02821-0.01935c-0.01149-0.00382-0.01934-0.00766-0.03083-0.01531    c-0.00806-0.00383-0.01673-0.01169-0.02821-0.01552c-0.00806-0.00383-0.01612-0.00766-0.0274-0.01532    c-0.00806-0.00382-0.01955-0.00766-0.02761-0.01148c-0.00786-0.00766-0.01935-0.01149-0.0274-0.01551    c-0.00806-0.00383-0.01935-0.01128-0.02801-0.01914c-0.01088,0-0.01874-0.00383-0.03023-0.01149    c-0.00806-0.00383-0.01612-0.00786-0.0274-0.01149c-0.00806-0.00766-0.01935-0.01149-0.0274-0.01551    c-0.00806-0.00363-0.01874-0.00766-0.0262-0.01149c-0.01128-0.00382-0.01934-0.00766-0.03083-0.01149    c-0.00786-0.00766-0.01934-0.01148-0.0274-0.01531c-0.00726-0.00383-0.01874-0.00786-0.0266-0.01169    c-0.01149-0.00766-0.01874-0.00766-0.02962-0.01148c-0.00806-0.00383-0.01935-0.00766-0.0266-0.01149h-0.0006    c-0.01088-0.00383-0.01894-0.00766-0.03023-0.01532c-0.00726,0-0.01874-0.00403-0.0268-0.01168    c-0.01068,0-0.01793-0.00383-0.02882-0.00766c-0.00806-0.00383-0.01934-0.00766-0.0266-0.01149    c-0.01149-0.00383-0.01874-0.00786-0.03023-0.01149c-0.00725,0-0.01874-0.00766-0.02599-0.00766    c-0.01128-0.00786-0.01874-0.00786-0.02942-0.01169c-0.01088,0-0.01814-0.00382-0.02942-0.00766    c-0.00745-0.00382-0.01874-0.00766-0.0262-0.01148c-0.01068,0-0.01854-0.00766-0.02942-0.00766    c-0.01068-0.00382-0.01854-0.00786-0.02942-0.01148c-0.00726,0-0.01794-0.00403-0.02539-0.00786    c-0.01068,0-0.02136-0.00383-0.02882-0.00766c-0.01128-0.00382-0.01874-0.00382-0.02942-0.00766    c-0.01068-0.00383-0.01794-0.00383-0.02882-0.00766c-0.00786-0.00383-0.01854-0.00766-0.02922-0.00766    c-0.00745-0.00383-0.01814-0.00786-0.02882-0.00786c-0.00745-0.00363-0.01814-0.00766-0.02539-0.00766    c-0.01007,0-0.02096-0.00383-0.02821-0.00383c-0.01068-0.00382-0.02136-0.00766-0.02881-0.00766    c-0.01068-0.00383-0.02136-0.00766-0.02862-0.00766c-0.01028,0-0.02095-0.00383-0.02821-0.00383    c-0.01068-0.00382-0.02136-0.00766-0.02882-0.00766c-0.01068-0.00383-0.02076-0.00383-0.02821-0.00766    c-0.01048,0-0.02136-0.00403-0.02801-0.00403c-0.01068,0-0.02136-0.00382-0.02821-0.00382    c-0.01007,0-0.02076-0.00383-0.03143-0.00383c-0.00686,0-0.01753-0.00382-0.02801-0.00766c-0.00685,0-0.01753,0-0.02761,0    c-0.01068-0.00382-0.01753-0.00382-0.02821-0.00382c-0.01068-0.00383-0.02076-0.00383-0.02821-0.00766    c-0.01007,0-0.02076,0-0.03083,0c-0.00725-0.00382-0.01733-0.00382-0.03083-0.00382    c-0.0141-0.00403-0.02095-0.00403-0.03164-0.00403c-0.01007,0-0.02015,0-0.02741-0.00383c-0.01007,0-0.02015,0-0.03103,0    c-0.00987,0-0.01673,0-0.0274-0.00383c-0.01008,0-0.02015,0-0.03023,0c-0.00746-0.00383-0.01753-0.00383-0.02761-0.00383    c-0.01008,0-0.02015,0-0.02761,0c-0.01007,0-0.02015,0-0.03023,0s-0.02015,0-0.027,0c-0.01008,0-0.02015,0-0.03023,0    c-0.01008,0-0.02136-0.00766-0.03144-0.00766c-1.88312,0-3.76625,0-5.64594,0c-1.8797,0-3.7594,0-5.6391,0    c-0.88927,0-1.77531,0-2.66479,0c-0.15476,0-0.30972,0-0.46468,0c-0.15154,0-0.30327,0-0.45139,0c-0.00343,0-0.00343,0-0.00343,0    c-0.88927,0-1.78196,0-2.67143,0c-1.88313,0-3.76947,0-5.64917,0s-3.76282,0-5.64595,0    c-0.01008,0-0.02136,0.00766-0.03144,0.00766s-0.02015,0-0.03023,0c-0.00665,0-0.01693,0-0.027,0s-0.02015,0-0.03023,0    c-0.00745,0-0.01753,0-0.02761,0c-0.01007,0-0.02015,0-0.02741,0.00383c-0.01027,0-0.02035,0-0.03043,0    c-0.01068,0.00383-0.01733,0.00383-0.02761,0.00383c-0.01048,0-0.02076,0-0.03083,0    c-0.00726,0.00383-0.01733,0.00383-0.0274,0.00383c-0.01068,0-0.01753,0-0.02821,0.00403c-0.01008,0-0.02015,0-0.02761,0.00382    c-0.01008,0-0.02076,0-0.03083,0c-0.00726,0.00383-0.01733,0.00383-0.02821,0.00766c-0.01048,0-0.01733,0-0.02801,0.00382    c-0.01008,0-0.02076,0-0.02761,0c-0.01068,0.00383-0.02136,0.00766-0.02801,0.00766c-0.01089,0-0.02136,0.00383-0.03164,0.00383    c-0.00665,0-0.01733,0.00382-0.02801,0.00382c-0.00685,0-0.01753,0.00403-0.02821,0.00403    c-0.00726,0.00383-0.01733,0.00383-0.02821,0.00766c-0.00725,0-0.01793,0.00383-0.02861,0.00766    c-0.00725,0-0.01753,0-0.02821,0.00383c-0.00745,0-0.01814,0.00383-0.02861,0.00766c-0.00746,0-0.01814,0.00383-0.02882,0.00383    c-0.00746,0.00382-0.01814,0.00766-0.02821,0.00766c-0.00726,0-0.01794,0.00403-0.02539,0.00766    c-0.01068,0-0.02136,0.00403-0.02882,0.00403c-0.01068,0.00383-0.02136,0.00766-0.02942,0.01149    c-0.01048,0.00383-0.01793,0.00383-0.02861,0.00766c-0.01068,0-0.01814,0.00383-0.02942,0.00766    c-0.00746,0.00383-0.01814,0.00766-0.02882,0.00766c-0.00746,0.00383-0.01814,0.00383-0.02539,0.00786    c-0.01068,0.00362-0.01874,0.00766-0.02942,0.00766c-0.01068,0.00382-0.01874,0.00766-0.02942,0.01149    c-0.00745,0.00382-0.01874,0.00766-0.026,0.00766c-0.01149,0.00766-0.01874,0.00766-0.02942,0.01148    c-0.01088,0.00383-0.01834,0.00383-0.02962,0.00766c-0.00725,0.00403-0.01854,0.00786-0.026,0.01168    c-0.01128,0.00363-0.01874,0.00766-0.03002,0.01149c-0.00746,0.00383-0.01874,0.00766-0.0268,0.01149    c-0.01068,0.00383-0.01814,0.00383-0.02882,0.00766c-0.00786,0.00383-0.01934,0.00766-0.0266,0.01168    c-0.01149,0.00383-0.01934,0.01149-0.03023,0.01149l-0.0006,0.00383c-0.00725,0-0.01874,0.00766-0.0268,0.01149    c-0.01068,0.00383-0.01793,0.00383-0.02942,0.00766c-0.00806,0.00766-0.01934,0.01168-0.0268,0.01168    c-0.00786,0.00766-0.01934,0.01149-0.0274,0.01532c-0.01129,0.00382-0.01914,0.01149-0.03063,0.01531    c-0.00745,0.00383-0.01813,0.00383-0.02619,0.00786c-0.00806,0.00766-0.01935,0.01149-0.0274,0.01512    c-0.01128,0.00403-0.01934,0.01168-0.0274,0.01551c-0.01129,0.00383-0.01935,0.00766-0.03023,0.01149    c-0.00867,0.00786-0.01995,0.01148-0.02801,0.01531c-0.00786,0.00786-0.01934,0.01168-0.0274,0.01531    c-0.00806,0.00403-0.01955,0.01169-0.02761,0.01552c-0.01129,0.00383-0.01935,0.00766-0.0274,0.01532    c-0.01128,0.00383-0.01995,0.01168-0.02801,0.01552c-0.01149,0.00383-0.01955,0.00766-0.03083,0.01531    c-0.00806,0.00383-0.01612,0.00766-0.02821,0.01532c-0.00806,0.00403-0.01612,0.00786-0.02821,0.01551    c-0.00806,0.00766-0.01592,0.01149-0.0274,0.01531c-0.00806,0.00383-0.01673,0.01149-0.02821,0.01551    c-0.00867,0.00766-0.01673,0.01129-0.02881,0.01914c-0.00806,0.00766-0.01612,0.01149-0.02418,0.01532    c-0.01209,0.00766-0.02015,0.01148-0.02881,0.01914c-0.00806,0.00403-0.02015,0.01168-0.02821,0.01552    c-0.00867,0.00766-0.01612,0.01149-0.02479,0.01914c-0.01149,0.00403-0.02015,0.01148-0.02882,0.01934    c-0.00806,0.00383-0.01693,0.01149-0.02479,0.01532c-0.00826,0.00383-0.01632,0.00766-0.02498,0.01531    c-0.01209,0.00766-0.02015,0.01149-0.02882,0.01935c-0.00887,0.00766-0.01693,0.01149-0.02499,0.01914    c-0.00867,0.00766-0.01673,0.01149-0.02217,0.01914c-0.00806,0.00403-0.01673,0.01168-0.02559,0.01935    c-0.00726,0-0.01612,0.00766-0.02499,0.01531c-0.00867,0.00766-0.01693,0.01149-0.02559,0.01935    c-0.00544,0.00766-0.0135,0.01148-0.02176,0.01914c-0.00866,0.00383-0.01753,0.01148-0.02217,0.01934    c-0.00887,0.00746-0.01773,0.01129-0.0264,0.01914c-0.00403,0.00383-0.0129,0.01149-0.02176,0.01914    c-0.00524,0.00786-0.0135,0.01149-0.02237,0.01914c-0.00867,0.00786-0.0135,0.01169-0.02217,0.01935    c-0.00544,0.00766-0.0137,0.01149-0.02237,0.01914c-0.00544,0.00766-0.01431,0.01552-0.01975,0.02317    c-0.00806,0.00383-0.0129,0.00766-0.02176,0.01532c-0.00524,0.00766-0.0141,0.01552-0.01955,0.02317    c-0.00887,0.00766-0.0135,0.01149-0.02237,0.01914c-0.00484,0.00403-0.0135,0.01149-0.01915,0.01914    c-0.00524,0.00766-0.0141,0.01551-0.01894,0.01935c-0.00887,0.00766-0.01411,0.01531-0.01955,0.02297    c-0.00887,0.00766-0.01431,0.01531-0.01975,0.02317c-0.00826,0.00383-0.0137,0.01149-0.01894,0.01914    c-0.00544,0.00766-0.01431,0.01532-0.01975,0.02318c-0.00544,0.00766-0.01027,0.01148-0.01571,0.01914    c-0.00887,0.00766-0.01411,0.01531-0.01955,0.01914c-0.00564,0.00786-0.01028,0.01551-0.01572,0.02317    c-0.00887,0.00383-0.01431,0.01149-0.01975,0.01935c-0.00544,0.00766-0.01088,0.01531-0.01572,0.01914    c-0.00544,0.00766-0.01068,0.01531-0.01693,0.0268c-0.00544,0.00766-0.01088,0.01531-0.01632,0.01935    c-0.00484,0.00766-0.01028,0.01531-0.01552,0.02297c-0.00564,0.00383-0.01169,0.01531-0.01713,0.02317    c-0.00484,0.00383-0.00685,0.01149-0.01229,0.01914c-0.00544,0.00766-0.01149,0.01551-0.01693,0.02297    c-0.00544,0.00786-0.00685,0.01552-0.01229,0.01935c-0.00605,0.01168-0.01149,0.01914-0.01693,0.0268    c-0.00201,0.00766-0.00685,0.01168-0.0131,0.02317c-0.00544,0.00383-0.00745,0.01149-0.01289,0.01914    c-0.00544,0.00766-0.00746,0.01531-0.01229,0.01935c-0.00544,0.00766-0.00806,0.01914-0.0135,0.0268    c-0.00201,0.00766-0.00826,0.01552-0.0129,0.02317c-0.00221,0.00383-0.00826,0.01532-0.01048,0.02297    c-0.00544,0.00786-0.00826,0.01935-0.0131,0.02317c-0.00201,0.00766-0.00826,0.01531-0.01027,0.02317    c-0.00544,0.00766-0.00826,0.01914-0.0131,0.02297c-0.00222,0.00766-0.00846,0.01914-0.01048,0.0268    c-0.00262,0.00786-0.00826,0.01552-0.00967,0.02317c-0.00262,0.00766-0.00826,0.01532-0.01088,0.02681    c-0.00222,0.00786-0.00766,0.01552-0.00987,0.02317c-0.00201,0.00766-0.00826,0.01531-0.01028,0.02297    c-0.00262,0.01169-0.00484,0.01935-0.00685,0.027c-0.00201,0.00766-0.00484,0.01532-0.00685,0.02297    c-0.00282,0.01149-0.00484,0.01935-0.00685,0.027c-0.00222,0.00766-0.00484,0.01531-0.00706,0.02297    c-0.00262,0.01149-0.00484,0.01914-0.00685,0.027c-0.00201,0.00766-0.00484,0.01914-0.00685,0.02298    c-0.00282,0.01149-0.00484,0.01935-0.00685,0.027c-0.57592,2.09551-1.19154,4.3331-1.85169,6.73229    c-0.70771,2.57229-1.47123,5.34811-2.293,8.33955c-0.03325,0.11909-0.0667,0.24202-0.10116,0.36514    c-0.267,0.9727-0.19204,1.74187,0.25572,2.3069c0.44978,0.56907,1.15043,0.8536,2.09008,0.8536c1.19153,0,2.38307,0,3.57904,0    c2.11345,0,3.33602-1.08413,3.65421-3.1605c0.07275-0.47274,0.14368-0.93803,0.21461-1.39949    c0.27023-1.734,0.17652-1.63789,0.1068-2.12615c-0.06327-0.48443-0.4673-1.07264-1.19799-1.75315    c-0.33713-0.36151-0.66982-0.73068-0.9997-1.09219c-0.64363-0.73813-0.88665-1.75315-0.92292-2.12977    c-0.01814-0.20393,0.01028-0.55758,0.08403-1.04585c0.12473-0.56524,0.24685-1.11899,0.36715-1.66488    c0.10116-0.45763,0.17914-0.82277,0.23778-1.09582c0.05864-0.27687,0.10378-0.48826,0.13723-0.64584    c0.16766-0.78448,0.37884-1.26126,0.63093-1.43416c0.27788-0.16544,0.95355-0.2537,2.0262-0.2537    c1.87083,0.00363,3.74569,0.00363,5.61693,0.00363c-0.09773,1.09582-0.1993,2.2263-0.30448,3.40292    c-0.10277,1.14559-0.1066,1.91073-0.00322,2.25672c0.10015,0.35003,0.53159,0.78831,1.29813,1.31123    c0.36836,0.28836,0.73995,0.57673,1.11819,0.87275c0.75728,0.62287,1.20322,1.11113,1.31244,1.45713    c0.01088,0.03849,0.02176,0.07698,0.03244,0.12312c-0.06993,2.24907-0.18902,6.05944-0.32061,10.28111    c-0.1465,4.69441-0.31013,9.95043-0.42438,13.62982c-0.02317,0.75365,1.4666,2.40705,3.00756,2.40705    c1.53552,0,3.03053-1.6534,3.00695-2.41451c-0.11325-3.67577-0.26962-8.92413-0.4135-13.61088    c-0.12938-4.21783-0.24222-8.02801-0.31134-10.27345c0.01068-0.05381,0.02116-0.09995,0.03607-0.14227    c0.10942-0.346,0.54751-0.83043,1.30479-1.4533c0.37461-0.29602,0.7462-0.58438,1.11859-0.87658    c0.76675-0.52292,1.19839-0.95758,1.29874-1.3072c0.10337-0.35003,0.09995-1.11134-0.00242-2.26076    c-0.10478-1.16897-0.20634-2.30307-0.30428-3.39889c1.86801,0.00383,3.73924,0.00383,5.60766,0.00383    c1.07285,0.00383,1.74811,0.08846,2.0264,0.25753c0.25229,0.17309,0.46267,0.64604,0.63073,1.43415    c0.03285,0.15376,0.07798,0.36534,0.13703,0.64202c0.05884,0.27687,0.13602,0.63818,0.23698,1.09582    c0.1203,0.54589,0.24262,1.10731,0.36595,1.66489c0.07355,0.49209,0.10236,0.84212,0.08403,1.04584    c-0.03647,0.37663-0.2805,1.38781-0.92473,2.12997c-0.32988,0.36151-0.66298,0.72665-1.00031,1.08817    c-0.73128,0.6805-1.13552,1.26871-1.2002,1.74932c-0.06105,0.48826-0.15113,0.38831,0.11406,2.12232    c0.07073,0.46146,0.14126,0.92675,0.2138,1.39949C47.01078,43.34207,48.23315,44.4264,50.3464,44.4264"/>
	</g>
</g>
<g>
	<path d="M86.76123,17.88281v-9.1123h25.61279v9.1123h-8.37354V69.1084h-8.86572V17.88281H86.76123z"/>
	<path d="M134.04785,69.1084l-3.20166-21.42578l-0.41016-2.54492h-0.32861l-0.41016,2.54492l-3.20166,21.42578h-6.896   l-6.64941-44.9043h7.55273l2.62695,23.47852l0.32812,2.54492h0.49268l0.41064-2.54492l3.44775-23.47852h4.92529l3.44824,23.47852   l0.41016,2.54492h0.49268l0.32812-2.54492l2.62695-23.47852h7.55273l-6.64941,44.9043H134.04785z"/>
	<path d="M151.69824,8.77051h8.2915v8.2915h-8.2915V8.77051z M151.69824,69.1084V24.2041h8.2915v44.9043H151.69824z"/>
	<path d="M174.84912,69.1084h-8.2915V24.2041h8.2915v3.77588c0.16406-0.08203,0.49219-0.41016,0.98486-0.90283   c0.90283-0.90283,2.13428-2.13428,3.6123-2.95508c0.73877-0.41064,1.39551-0.57471,2.13428-0.57471   c2.21631,0,3.77637,1.31348,4.76123,2.95508c0.98535,1.72412,1.47754,3.94043,1.47754,5.82861V69.1084h-8.29102V33.5625   c0-1.72412-0.98535-1.97021-1.97021-1.97021c-0.90332,0-1.39551,0.49268-1.97021,1.06689   c-0.24658,0.32861-0.49268,0.65723-0.73877,1.06738V69.1084z"/>
	<path d="M229.93311,48.4209v8.29199c-0.08203,2.46191-0.57471,4.67871-1.47754,6.56738   c-0.73877,1.6416-1.88818,3.20117-3.53027,4.43262c-1.6416,1.31348-3.85791,2.05273-6.81348,2.05273   c-2.95508,0-5.25391-0.73926-6.89551-2.05273c-1.64209-1.23145-2.70898-2.79102-3.44824-4.43262   c-0.90283-1.88867-1.39551-4.10547-1.47754-6.56738V21.1665c0.08203-2.38086,0.57471-4.59717,1.47754-6.48535   c0.73926-1.6416,1.80615-3.28369,3.44824-4.51514c1.6416-1.23145,3.94043-2.05225,6.89551-2.05225   c2.95557,0,5.17188,0.8208,6.81348,2.05225c1.64209,1.23145,2.7915,2.87354,3.53027,4.51514   c0.90283,1.88818,1.39551,4.10449,1.47754,6.48535v8.2915h-8.29102v-8.2915c0-1.64209-0.41064-2.79102-1.31348-3.77637   c-0.41064-0.41016-1.14941-0.65674-2.05273-0.65674c-1.55957,0-2.29834,1.14941-2.70898,2.2168   c-0.24609,0.65674-0.32812,1.39551-0.41016,2.21631v35.54639c0.08203,1.72363,0.57422,2.87305,1.39551,3.77539   c0.41016,0.41113,0.98486,0.65723,1.72363,0.65723c1.88818,0,2.62695-0.98535,3.0376-2.2168   c0.24609-0.57422,0.32861-1.31348,0.32861-2.21582V48.4209H229.93311z"/>
	<path d="M235.27002,8.77051h8.2915v8.2915h-8.2915V8.77051z M235.27002,69.1084V24.2041h8.2915v44.9043H235.27002z"/>
	<path d="M259.81641,13.12158V24.2041h5.66455v7.47021h-5.66455V54.0039c0,1.39551,0,3.20117,0.32861,4.67871   c0.32812,1.47754,0.98486,2.70898,2.29834,2.70898c0.65674,0,1.47803-0.08203,2.05225-0.16406   c0.32861-0.08203,0.65674-0.08203,0.98535-0.16406v8.12695c-0.41064,0.08203-0.8208,0.24609-1.23145,0.32812   c-0.8208,0.16406-1.88818,0.24707-3.20166,0.24707c-4.84326,0-7.14209-2.46289-8.2915-5.58301   c-1.14893-3.11914-1.23096-6.89551-1.23096-9.52246V31.67432h-4.18701V24.2041h4.18701V13.12158H259.81641z"/>
	<path d="M269.91455,8.77051h8.2915v8.2915h-8.2915V8.77051z M269.91455,69.1084V24.2041h8.2915v44.9043H269.91455z"/>
	<path d="M305.37891,53.01855v5.17188c-0.24609,4.35059-1.55957,7.3877-4.51465,9.76855   c-1.47803,1.23145-3.53027,1.80664-6.23926,1.80664c-5.33594,0-8.04492-2.95605-9.3584-5.91113   c-0.73877-1.72363-1.23145-3.69434-1.31348-5.91113V35.36865c0.24609-4.35107,1.64209-7.55273,4.59717-10.01562   c1.39551-1.23096,3.44775-1.80566,6.15674-1.80566c5.33643,0,8.04492,2.95508,9.3584,5.82861   c0.73926,1.72363,1.23145,3.61182,1.31348,5.74609V48.1748h-13.70898v9.76855c0.08203,1.72461,0.57471,2.95605,1.31348,3.8584   c0.41016,0.41113,0.98486,0.65723,1.72363,0.65723c1.56006,0,2.29883-0.98535,2.62695-2.2168   c0.24658-0.65625,0.32861-1.39551,0.32861-2.29883v-4.9248H305.37891z M291.66992,41.68945h5.99268v-6.3208   c0-1.72412-0.32861-2.95557-1.14941-3.94043c-0.41016-0.41064-1.06738-0.65674-1.80615-0.65674   c-1.55957,0-2.21631,1.06689-2.62695,2.29834c-0.24609,0.65674-0.32812,1.39551-0.41016,2.29883V41.68945z"/>
	<path d="M323.27539,35.69678c0-1.06689,0-2.38037-0.32812-3.44775c-0.41016-0.98535-1.06738-1.80615-2.38086-1.80615   c-1.06738,0-1.72363,0.8208-2.05273,1.80615c-0.41016,0.98486-0.49219,2.38086-0.49219,3.44775   c0,1.39551,0.73926,2.87354,1.80566,4.18701c0.98535,1.31348,2.29883,2.62695,3.6123,3.8584   c1.72461,1.72363,3.77637,3.69336,5.17188,5.91016c1.39551,2.29883,2.46289,4.84375,2.46289,7.79883   c0,2.87305-0.65625,5.91113-2.29883,8.20898c-1.72363,2.38086-4.35059,4.10547-8.29102,4.10547   c-5.00781,0-7.96289-2.29883-9.60449-5.08984s-1.9707-6.23926-1.9707-8.62012h7.7168c0,1.23145,0.08203,2.95508,0.65723,4.26855   c0.57422,1.39551,1.47754,2.54492,3.20117,2.54492c2.38086,0,2.87305-2.79102,2.87305-5.41797   c0-2.70898-2.62695-5.41797-5.17188-7.96289c-1.96973-1.8877-3.8584-3.6123-5.33594-5.82812   c-1.47754-2.2168-2.54492-4.67969-2.54492-7.96338c0-2.62695,0.49316-5.66455,2.05273-8.04492   c1.55957-2.29883,4.10449-4.02246,8.04492-4.10449c4.84375-0.08252,7.55273,1.72363,8.94824,4.10449   c1.39551,2.38037,1.6416,5.5,1.6416,8.04492C330.99219,35.69677,323.27539,35.69677,323.27539,35.69678z"/>
	<path d="M363.33691,69.1084l-5.66504-37.92676l-0.32812-2.54492h-0.49219V69.1084h-8.20898V8.77051h10.83594l5.25391,27.58301   l0.41016,3.20166h0.16406l0.41016-3.20166l5.25391-27.58301h10.83691V69.1084h-8.20996V28.63672h-0.49219l-0.32812,2.54492   l-5.66406,37.92676H363.33691z"/>
	<path d="M400.93555,34.87598c0-0.73877,0-1.88818-0.24609-2.70898c-0.32812-0.82129-0.98535-1.39551-2.05273-1.39551   c-1.39551,0-1.96973,1.06689-2.21582,2.38037c-0.08203,0.65674-0.16504,1.39551-0.16504,2.13428c0,0.73926,0,1.47803,0,2.13477   h-8.29102v-1.88818c0-3.28369,1.23145-6.23926,3.20215-8.45557c1.96973-2.21631,4.76074-3.52979,7.96289-3.52979   c2.70898,0,5.17188,1.06689,7.05957,2.87305c1.88867,1.80615,3.03711,4.35107,3.03711,7.30615v27.58301   c0,4.02246,0.24707,5.8291,0.5752,7.79883h-8.12695c-0.73926-0.90332-0.73926-3.03711-0.73926-3.6123h-0.57422   c-0.41113,0.73926-1.14941,1.80664-2.29883,2.70898c-1.14941,0.90332-2.70898,1.56055-4.35059,1.56055   c-1.06738,0-2.79199-0.41113-4.10547-2.05273c-1.39551-1.55957-2.54395-4.35059-2.54395-9.03027   c0-5.00781,1.47754-8.62012,3.44727-11.08203c1.9707-2.46289,4.43359-4.02246,6.48535-5.08984   c2.05273-1.06738,3.6123-1.80615,3.94043-2.70947V34.87598z M400.93555,47.43555   c-4.02246,1.72461-5.74609,5.74707-5.74609,10.01562c0,0.5752,0.08203,1.55957,0.41016,2.46289   c0.32812,0.98535,0.90332,1.72363,1.8877,1.72363c1.88867,0,3.44824-1.14941,3.44824-2.70898V47.43555z"/>
	<path d="M423.18359,8.77051V37.4209h0.41016l0.49219-1.47754l4.02344-11.73926h7.46973l-5.99219,14.6123l7.55176,30.29199h-7.96289   l-4.10449-18.14258l-0.16406-0.65625h-0.41016l-0.24609,0.65625l-1.06738,2.62695V69.1084h-8.29102V8.77051H423.18359z"/>
	<path d="M460.94727,53.01855v5.17188c-0.24609,4.35059-1.55957,7.3877-4.51465,9.76855   c-1.47754,1.23145-3.53027,1.80664-6.23926,1.80664c-5.33594,0-8.04492-2.95605-9.3584-5.91113   c-0.73926-1.72363-1.23145-3.69434-1.31348-5.91113V35.36865c0.24609-4.35107,1.6416-7.55273,4.59766-10.01562   c1.39551-1.23096,3.44727-1.80566,6.15625-1.80566c5.33594,0,8.04492,2.95508,9.3584,5.82861   c0.73926,1.72363,1.23145,3.61182,1.31348,5.74609V48.1748h-13.70898v9.76855c0.08203,1.72461,0.57422,2.95605,1.31348,3.8584   c0.41016,0.41113,0.98535,0.65723,1.72363,0.65723c1.55957,0,2.29883-0.98535,2.62695-2.2168   c0.24609-0.65625,0.32812-1.39551,0.32812-2.29883v-4.9248H460.94727z M447.23828,41.68945h5.99219v-6.3208   c0-1.72412-0.32812-2.95557-1.14844-3.94043c-0.41113-0.41064-1.06738-0.65674-1.80664-0.65674   c-1.55957,0-2.2168,1.06689-2.62695,2.29834c-0.24609,0.65674-0.32812,1.39551-0.41016,2.29883V41.68945z"/>
	<path d="M483.03125,32.7417c-0.73828-0.24658-1.55957-0.32861-2.29883-0.32861c-1.31348,0-2.87305,0.16406-4.18652,1.39551   c-1.55957,1.31348-1.80566,2.70898-1.80566,4.10449V69.1084h-8.29102V24.2041h8.29102v5.00732   c0.08203-0.57471,0.65625-1.97021,1.96973-3.28369c1.31348-1.23145,3.28418-2.38037,6.32129-2.38037V32.7417z"/>
</g>
</svg>